<svg width="35" height="35" viewBox="0 0 35 35" fill="none" xmlns="http://www.w3.org/2000/svg">
<path d="M33.5417 18.9279H1.45833C0.653331 18.9279 0 18.2746 0 17.4696C0 16.6646 0.653331 16.0112 1.45833 16.0112H33.5417C34.3467 16.0112 35 16.6646 35 17.4696C35 18.2746 34.3467 18.9279 33.5417 18.9279Z" fill="white"/>
<path d="M33.5417 7.74723H1.45833C0.653331 7.74723 0 7.0939 0 6.2889C0 5.4839 0.653331 4.83057 1.45833 4.83057H33.5417C34.3467 4.83057 35 5.4839 35 6.2889C35 7.0939 34.3467 7.74723 33.5417 7.74723Z" fill="white"/>
<path d="M33.5417 30.1086H1.45833C0.653331 30.1086 0 29.4552 0 28.6502C0 27.8452 0.653331 27.1919 1.45833 27.1919H33.5417C34.3467 27.1919 35 27.8452 35 28.6502C35 29.4552 34.3467 30.1086 33.5417 30.1086Z" fill="white"/>
</svg>
